<?xml version="1.0" encoding="UTF-8"?>
<!DOCTYPE svg PUBLIC "-//W3C//DTD SVG 1.1//EN"
    "http://www.w3.org/Graphics/SVG/1.1/DTD/svg11.dtd"><svg xmlns="http://www.w3.org/2000/svg" height="57" width="129" xmlns:xlink="http://www.w3.org/1999/xlink" version="1.11.1"><rect transform="translate(6 0)translate(23 23)" x="0" y="0" fill="darkgrey" height="8" width="8" class="textbox" stroke="none"/><circle transform="translate(6 0)translate(23 23)" fill="lightgrey" r="2" cx="4" cy="4"/><rect transform="translate(0 0)translate(0 5)translate(6 -5)translate(6 0)translate(0 0)translate(0 5)translate(6 -5)translate(13 0)translate(6 0)translate(23 23)" x="0" y="0" fill="darkgrey" height="8" width="8" class="textbox" stroke="none"/><circle transform="translate(0 0)translate(0 5)translate(6 -5)translate(6 0)translate(0 0)translate(0 5)translate(6 -5)translate(13 0)translate(6 0)translate(23 23)" fill="lightgrey" r="2" cx="4" cy="4"/><path transform="translate(6 -5)translate(6 0)translate(0 0)translate(0 5)translate(6 -5)translate(13 0)translate(6 0)translate(23 23)" fill="none" class="v_connector_in" d="M -6,15 C 0,15 -6,9 0 9" stroke="darkgrey"/><path transform="translate(6 -5)translate(6 0)translate(0 0)translate(0 5)translate(6 -5)translate(13 0)translate(6 0)translate(23 23)" fill="none" class="v_connector_out" d="M 14,15 C 8,15 14,9 8 9" stroke="darkgrey"/><rect transform="translate(0 0)translate(0 18)translate(6 -5)translate(6 0)translate(0 0)translate(0 5)translate(6 -5)translate(13 0)translate(6 0)translate(23 23)" x="0" y="0" fill="darkgrey" height="8" width="8" class="textbox" stroke="none"/><circle transform="translate(0 0)translate(0 18)translate(6 -5)translate(6 0)translate(0 0)translate(0 5)translate(6 -5)translate(13 0)translate(6 0)translate(23 23)" fill="lightgrey" r="2" cx="4" cy="4"/><path transform="translate(6 -5)translate(6 0)translate(0 0)translate(0 5)translate(6 -5)translate(13 0)translate(6 0)translate(23 23)" fill="none" class="v_connector_in" d="M -6,15 C 0,15 -6,22 0 22" stroke="darkgrey"/><path transform="translate(6 -5)translate(6 0)translate(0 0)translate(0 5)translate(6 -5)translate(13 0)translate(6 0)translate(23 23)" fill="none" class="v_connector_out" d="M 14,15 C 8,15 14,22 8 22" stroke="darkgrey"/><rect transform="translate(0 0)translate(0 5)translate(6 -5)translate(25 0)translate(6 0)translate(0 0)translate(0 5)translate(6 -5)translate(13 0)translate(6 0)translate(23 23)" x="0" y="0" fill="darkgrey" height="8" width="8" class="textbox" stroke="none"/><circle transform="translate(0 0)translate(0 5)translate(6 -5)translate(25 0)translate(6 0)translate(0 0)translate(0 5)translate(6 -5)translate(13 0)translate(6 0)translate(23 23)" fill="lightgrey" r="2" cx="4" cy="4"/><path transform="translate(6 -5)translate(25 0)translate(6 0)translate(0 0)translate(0 5)translate(6 -5)translate(13 0)translate(6 0)translate(23 23)" fill="none" class="v_connector_in" d="M -6,15 C 0,15 -6,9 0 9" stroke="darkgrey"/><path transform="translate(6 -5)translate(25 0)translate(6 0)translate(0 0)translate(0 5)translate(6 -5)translate(13 0)translate(6 0)translate(23 23)" fill="none" class="v_connector_out" d="M 14,15 C 8,15 14,9 8 9" stroke="darkgrey"/><rect transform="translate(0 0)translate(0 18)translate(6 -5)translate(25 0)translate(6 0)translate(0 0)translate(0 5)translate(6 -5)translate(13 0)translate(6 0)translate(23 23)" x="0" y="0" fill="darkgrey" height="8" width="8" class="textbox" stroke="none"/><circle transform="translate(0 0)translate(0 18)translate(6 -5)translate(25 0)translate(6 0)translate(0 0)translate(0 5)translate(6 -5)translate(13 0)translate(6 0)translate(23 23)" fill="lightgrey" r="2" cx="4" cy="4"/><path transform="translate(6 -5)translate(25 0)translate(6 0)translate(0 0)translate(0 5)translate(6 -5)translate(13 0)translate(6 0)translate(23 23)" fill="none" class="v_connector_in" d="M -6,15 C 0,15 -6,22 0 22" stroke="darkgrey"/><path transform="translate(6 -5)translate(25 0)translate(6 0)translate(0 0)translate(0 5)translate(6 -5)translate(13 0)translate(6 0)translate(23 23)" fill="none" class="v_connector_out" d="M 14,15 C 8,15 14,22 8 22" stroke="darkgrey"/><path transform="translate(6 0)translate(0 0)translate(0 5)translate(6 -5)translate(13 0)translate(6 0)translate(23 23)" fill="none" class="h_connector" d="M 20,10 c 2,0 2,0 5 0" stroke="darkgrey"/><path transform="translate(6 -5)translate(13 0)translate(6 0)translate(23 23)" fill="none" class="v_connector_in" d="M -6,22 C 0,22 -6,15 6 15" stroke="darkgrey"/><path transform="translate(6 -5)translate(13 0)translate(6 0)translate(23 23)" fill="none" class="v_connector_out" d="M 63,22 C 57,22 63,15 51 15" stroke="darkgrey"/><rect transform="translate(24 0)translate(0 31)translate(6 -5)translate(13 0)translate(6 0)translate(23 23)" x="0" y="0" fill="darkgrey" height="8" width="8" class="textbox" stroke="none"/><circle transform="translate(24 0)translate(0 31)translate(6 -5)translate(13 0)translate(6 0)translate(23 23)" fill="lightgrey" r="2" cx="4" cy="4"/><path transform="translate(6 -5)translate(13 0)translate(6 0)translate(23 23)" fill="none" class="v_connector_in" d="M -6,22 C 0,22 -6,35 24 35" stroke="darkgrey"/><path transform="translate(6 -5)translate(13 0)translate(6 0)translate(23 23)" fill="none" class="v_connector_out" d="M 63,22 C 57,22 63,35 33 35" stroke="darkgrey"/><path transform="translate(6 0)translate(23 23)" fill="none" class="h_connector" d="M 8,4 c 2,0 2,13 5 13" stroke="darkgrey"/></svg>