<?xml version="1.0" encoding="UTF-8"?>
<!DOCTYPE svg PUBLIC "-//W3C//DTD SVG 1.1//EN"
    "http://www.w3.org/Graphics/SVG/1.1/DTD/svg11.dtd"><svg xmlns="http://www.w3.org/2000/svg" height="215" width="835" xmlns:xlink="http://www.w3.org/1999/xlink" version="1.11.1"><rect transform="translate(22 0)translate(23 23)" x="0" y="0" fill="darkgrey" height="44" width="150" class="textbox" stroke="none"/><text transform="translate(22 0)translate(23 23)" x="75" y="22" fill="white" dominant-baseline="central" text-anchor="middle">walks</text><rect transform="translate(9 0)translate(0 10)translate(22 -10)translate(0 20)translate(22 0)translate(0 0)translate(0 10)translate(22 -10)translate(160 0)translate(22 0)translate(23 23)" x="0" y="0" fill="darkgrey" height="44" width="192" class="textbox" stroke="none"/><text transform="translate(9 0)translate(0 10)translate(22 -10)translate(0 20)translate(22 0)translate(0 0)translate(0 10)translate(22 -10)translate(160 0)translate(22 0)translate(23 23)" x="96" y="22" fill="white" dominant-baseline="central" text-anchor="middle">an alcoholic</text><path transform="translate(22 -10)translate(0 20)translate(22 0)translate(0 0)translate(0 10)translate(22 -10)translate(160 0)translate(22 0)translate(23 23)" fill="none" class="v_connector_in" d="M -22,32 C 0,32 -22,32 9 32" stroke="darkgrey"/><path transform="translate(22 -10)translate(0 20)translate(22 0)translate(0 0)translate(0 10)translate(22 -10)translate(160 0)translate(22 0)translate(23 23)" fill="none" class="v_connector_out" d="M 232,32 C 210,32 232,32 201 32" stroke="darkgrey"/><rect transform="translate(0 0)translate(0 64)translate(22 -10)translate(0 20)translate(22 0)translate(0 0)translate(0 10)translate(22 -10)translate(160 0)translate(22 0)translate(23 23)" x="0" y="0" fill="darkgrey" height="44" width="210" class="textbox" stroke="none"/><text transform="translate(0 0)translate(0 64)translate(22 -10)translate(0 20)translate(22 0)translate(0 0)translate(0 10)translate(22 -10)translate(160 0)translate(22 0)translate(23 23)" x="105" y="22" fill="white" dominant-baseline="central" text-anchor="middle">a non-alcoholic</text><path transform="translate(22 -10)translate(0 20)translate(22 0)translate(0 0)translate(0 10)translate(22 -10)translate(160 0)translate(22 0)translate(23 23)" fill="none" class="v_connector_in" d="M -22,32 C 0,32 -22,86 0 86" stroke="darkgrey"/><path transform="translate(22 -10)translate(0 20)translate(22 0)translate(0 0)translate(0 10)translate(22 -10)translate(160 0)translate(22 0)translate(23 23)" fill="none" class="v_connector_out" d="M 232,32 C 210,32 232,86 210 86" stroke="darkgrey"/><text transform="translate(43 0)translate(22 0)translate(0 0)translate(0 10)translate(22 -10)translate(160 0)translate(22 0)translate(23 23)" x="84" dominant-baseline="hanging" text-anchor="middle">consumes</text><text transform="translate(43 0)translate(0 138)translate(22 0)translate(0 0)translate(0 10)translate(22 -10)translate(160 0)translate(22 0)translate(23 23)" x="84" dominant-baseline="ideographic" text-anchor="middle">beverage</text><rect transform="translate(3 0)translate(0 10)translate(22 -10)translate(0 20)translate(264 0)translate(22 0)translate(0 0)translate(0 10)translate(22 -10)translate(160 0)translate(22 0)translate(23 23)" x="0" y="0" fill="darkgrey" height="44" width="162" class="textbox" stroke="none"/><text transform="translate(3 0)translate(0 10)translate(22 -10)translate(0 20)translate(264 0)translate(22 0)translate(0 0)translate(0 10)translate(22 -10)translate(160 0)translate(22 0)translate(23 23)" x="81" y="22" fill="white" dominant-baseline="central" text-anchor="middle">in part</text><path transform="translate(22 -10)translate(0 20)translate(264 0)translate(22 0)translate(0 0)translate(0 10)translate(22 -10)translate(160 0)translate(22 0)translate(23 23)" fill="none" class="v_connector_in" d="M -22,32 C 0,32 -22,32 3 32" stroke="darkgrey"/><path transform="translate(22 -10)translate(0 20)translate(264 0)translate(22 0)translate(0 0)translate(0 10)translate(22 -10)translate(160 0)translate(22 0)translate(23 23)" fill="none" class="v_connector_out" d="M 190,32 C 168,32 190,32 165 32" stroke="darkgrey"/><rect transform="translate(0 0)translate(0 64)translate(22 -10)translate(0 20)translate(264 0)translate(22 0)translate(0 0)translate(0 10)translate(22 -10)translate(160 0)translate(22 0)translate(23 23)" x="0" y="0" fill="darkgrey" height="44" width="168" class="textbox" stroke="none"/><text transform="translate(0 0)translate(0 64)translate(22 -10)translate(0 20)translate(264 0)translate(22 0)translate(0 0)translate(0 10)translate(22 -10)translate(160 0)translate(22 0)translate(23 23)" x="84" y="22" fill="white" dominant-baseline="central" text-anchor="middle">in whole</text><path transform="translate(22 -10)translate(0 20)translate(264 0)translate(22 0)translate(0 0)translate(0 10)translate(22 -10)translate(160 0)translate(22 0)translate(23 23)" fill="none" class="v_connector_in" d="M -22,32 C 0,32 -22,86 0 86" stroke="darkgrey"/><path transform="translate(22 -10)translate(0 20)translate(264 0)translate(22 0)translate(0 0)translate(0 10)translate(22 -10)translate(160 0)translate(22 0)translate(23 23)" fill="none" class="v_connector_out" d="M 190,32 C 168,32 190,86 168 86" stroke="darkgrey"/><text transform="translate(25 0)translate(264 0)translate(22 0)translate(0 0)translate(0 10)translate(22 -10)translate(160 0)translate(22 0)translate(23 23)" x="81" dominant-baseline="hanging" text-anchor="middle">whether</text><path transform="translate(22 0)translate(0 0)translate(0 10)translate(22 -10)translate(160 0)translate(22 0)translate(23 23)" fill="none" class="h_connector" d="M 254,42 c 5,0 5,0 10 0" stroke="darkgrey"/><path transform="translate(22 -10)translate(160 0)translate(22 0)translate(23 23)" fill="none" class="v_connector_in" d="M -22,32 C 0,32 -22,52 22 52" stroke="darkgrey"/><path transform="translate(22 -10)translate(160 0)translate(22 0)translate(23 23)" fill="none" class="v_connector_out" d="M 542,32 C 520,32 542,52 498 52" stroke="darkgrey"/><rect transform="translate(188 0)translate(0 158)translate(22 -10)translate(160 0)translate(22 0)translate(23 23)" x="0" y="0" fill="darkgrey" height="44" width="144" class="textbox" stroke="none"/><text transform="translate(188 0)translate(0 158)translate(22 -10)translate(160 0)translate(22 0)translate(23 23)" x="72" y="22" fill="white" dominant-baseline="central" text-anchor="middle">eats</text><path transform="translate(22 -10)translate(160 0)translate(22 0)translate(23 23)" fill="none" class="v_connector_in" d="M -22,32 C 0,32 -22,180 188 180" stroke="darkgrey"/><path transform="translate(22 -10)translate(160 0)translate(22 0)translate(23 23)" fill="none" class="v_connector_out" d="M 542,32 C 520,32 542,180 332 180" stroke="darkgrey"/><path transform="translate(22 0)translate(23 23)" fill="none" class="h_connector" d="M 150,22 c 5,0 5,0 10 0" stroke="darkgrey"/></svg>